<?xml version="1.0" encoding="UTF-8"?>
<svg width="46px" height="53px" viewBox="0 0 46 53" version="1.1" xmlns="http://www.w3.org/2000/svg" xmlns:xlink="http://www.w3.org/1999/xlink">
    <title>Group 27</title>
    <g id="LP" stroke="none" stroke-width="1" fill="none" fill-rule="evenodd">
        <g id="LP---Web" transform="translate(-256.000000, -1106.000000)" stroke="#3B645F" stroke-width="4">
            <g id="Group-6" transform="translate(0.000000, 650.000000)">
                <g id="Group-27" transform="translate(256.000000, 456.000000)">
                    <path d="M23,50.6938776 C25.8515927,50.6938776 28.1632653,48.3822049 28.1632653,45.5306122 C28.1632653,42.6790196 25.8515927,43.165938 23,43.165938 C20.1484073,43.165938 17.8367347,42.6790196 17.8367347,45.5306122 C17.8367347,48.3822049 20.1484073,50.6938776 23,50.6938776 Z" id="Oval-7"></path>
                    <path d="M25.2385354,2 C29.1360342,2 32.6645361,3.5799634 35.218577,6.13486168 C37.7725728,8.68971485 39.3521013,12.219416 39.3521013,16.1189752 L39.3521013,16.1189752 L39.3521013,32.3087964 L43.7022483,43.0261556 L2.18111468,43.0612245 L6.18339466,32.2866748 L6.18339466,16.1189752 C6.18339466,12.2196292 7.76259153,8.68938608 10.316919,6.13420116 C12.8704565,3.5798064 16.3984777,2 20.2969606,2 L20.2969606,2 Z" id="Combined-Shape"></path>
                </g>
            </g>
        </g>
    </g>
</svg>