<?xml version="1.0" encoding="UTF-8"?>
<svg width="38px" height="53px" viewBox="0 0 38 53" version="1.1" xmlns="http://www.w3.org/2000/svg" xmlns:xlink="http://www.w3.org/1999/xlink">
    <title>Group 19</title>
    <g id="LP" stroke="none" stroke-width="1" fill="none" fill-rule="evenodd">
        <g id="LP---Web" transform="translate(-902.000000, -1108.000000)" stroke="#3B645F" stroke-width="4">
            <g id="Group-6" transform="translate(0.000000, 650.000000)">
                <g id="Group-19" transform="translate(904.000000, 460.000000)">
                    <path d="M16.9601676,0 C26.3270095,0 33.9203352,7.22306951 33.9203352,16.1331773 C33.9203352,18.0198841 33.5798683,19.8309481 32.9541896,21.5138084 C32.9480517,21.6611781 32.9221096,21.8160058 32.8744453,21.9754002 C32.8744453,21.9754002 32.1338783,24.5317089 31.2597945,27.1241467 L31.0772436,27.660202 C30.494394,29.3541074 29.8722029,30.9889151 29.3813932,31.8558667 C28.4812853,33.4457904 27.383221,35.1640982 26.2308593,36.8615286 L25.8221228,37.4595117 C22.1958344,42.7297446 18.2060645,47.6263739 18.2060645,47.6263739 C17.5255507,48.4827789 16.3863167,48.510647 15.6787639,47.6769201 C15.6787639,47.6769201 7.72687418,38.5069924 3.96145398,31.8558671 C2.62304779,29.4917465 0.936211175,22.0084168 0.936211175,22.0084168 C0.878783923,21.7699559 0.868434431,21.5415983 0.899228804,21.3306432 C0.316291067,19.6998814 0,17.9516652 0,16.1331773 C0,7.22306951 7.59332568,0 16.9601676,0 Z" id="Combined-Shape"></path>
                    <ellipse id="Oval-5" cx="17" cy="15.7697316" rx="6.26315789" ry="6.24838421"></ellipse>
                </g>
            </g>
        </g>
    </g>
</svg>