<?xml version="1.0" encoding="UTF-8"?>
<svg width="49px" height="47px" viewBox="0 0 49 47" version="1.1" xmlns="http://www.w3.org/2000/svg" xmlns:xlink="http://www.w3.org/1999/xlink">
    <title>Star</title>
    <g id="LP" stroke="none" stroke-width="1" fill="none" fill-rule="evenodd" stroke-linecap="round">
        <g id="LP---Web" transform="translate(-897.000000, -949.000000)" stroke="#3B645F" stroke-width="4">
            <g id="Group-6" transform="translate(0.000000, 650.000000)">
                <path d="M923.854093,338.129534 C922.391741,337.36073 920.009741,337.366544 918.558447,338.129534 L909.232707,343.032366 C907.770355,343.80117 906.813401,343.092053 907.090573,341.476015 L908.871631,331.09165 C909.150915,329.463297 908.409308,327.199676 907.235187,326.055191 L899.690504,318.700943 C898.507436,317.547737 898.886131,316.418491 900.508726,316.182714 L910.935221,314.667656 C912.570181,314.430082 914.493842,313.025274 915.219488,311.554953 L919.882359,302.106946 C920.613535,300.625421 921.804535,300.636625 922.530182,302.106946 L927.193052,311.554953 C927.924228,313.036478 929.854724,314.431879 931.477319,314.667656 L941.903814,316.182714 C943.538774,316.420288 943.896158,317.556458 942.722037,318.700943 L935.177354,326.055191 C933.994286,327.208397 933.263737,329.475611 933.540909,331.09165 L935.321967,341.476015 C935.601252,343.104368 934.631127,343.795356 933.179834,343.032366 L923.854093,338.129534 Z" id="Star"></path>
            </g>
        </g>
    </g>
</svg>